<?xml version="1.0" encoding="utf-8"?>
<!-- Generator: Adobe Illustrator 24.2.3, SVG Export Plug-In . SVG Version: 6.00 Build 0)  -->
<svg version="1.1" id="レイヤー_1" xmlns="http://www.w3.org/2000/svg" xmlns:xlink="http://www.w3.org/1999/xlink" x="0px"
	 y="0px" viewBox="0 0 364.04 166.78" style="enable-background:new 0 0 364.04 166.78;" xml:space="preserve">
<style type="text/css">
	.st0{fill:#063654;}
	.st1{fill:#FFFFFF;stroke:#FFFFFF;stroke-miterlimit:10;}
	.st2{fill:#063654;stroke:#063654;stroke-miterlimit:10;}
</style>
<g>
	<path class="st0" d="M45.94,29.29c0,0,29.88-28.08,71.68-27.77s49.71,13.09,74.02,20.64s52.58,16.26,89.32,14.52
		s53.14-10.45,58.8-20.33c0,0,14.13,19.17-13,35.43c-27.14,16.26-104.59-3.48-120.98-9.87s-51.45-26.72-66.71-14.52
		s-17.53,45.88-17.53,45.88s18.88-11.3,28.27,0c0,0,3.13,0.45,2.74-7.19h15.26c0,0-12.91,43.41-10.17,57.48s23.48,18.49,33.65-23.72
		l3.4-13.27h14.99c0,0-12.13,43.1,2.74,46.87s25.04-23.16,29.74-45.67h3.52l5.48-24.12h16.44c0,0-12.52,41-2.35,47.84
		c10.17,6.83,18,2.41,34.44-46.63h14.48l-1.17,9.65c0,0,0.39,2.41,7.83-2.81c7.43-5.23,34.83-4.82,41.09,18.89
		s-10.57,45.42-21.91,53.06h23.27l-5.27,12.06H75.85c0,0-28.57,20.9-61.04,0c-14.6-10.45-16.44-33.36-10.57-49.44
		s27.78-19.3,36.78-8.44s-2.74,32.56-18,34.17c0,0,0,17.29,20.35,19.3s36.39-23.72,36.39-23.72s27.39-37.79,30.13-61.5
		c2.74-23.72,0.39-41-11.74-39.8S77.03,32.7,76.64,39.54c0,0-1.57,0.8,4.7,1.21c6.26,0.4,15.26,1.21,16.83,13.67
		S93.07,90.59,69.2,92.6c-23.87,2.01-39.52-17.69-37.96-34.17C32.81,41.95,45.94,29.29,45.94,29.29z"/>
	<path class="st0" d="M44.96,165.65c-9.15,0-19.64-2.34-30.52-9.34C3.2,148.27-4.4,127.92,3.6,106.02
		c2.83-7.76,9.63-13.31,18.18-14.85c7.86-1.4,15.43,0.96,19.77,6.2c3.77,4.55,4.35,11.21,1.59,18.28
		c-2.96,7.58-10.07,15.67-19.4,16.98c0.22,3.09,2.17,16.23,19.7,17.96c19.71,1.97,35.59-23.14,35.75-23.39
		c0.3-0.42,27.34-37.95,30.03-61.21c2.19-18.92,0.83-31.57-3.93-36.56c-1.85-1.94-4.16-2.74-7.06-2.45
		c-11.91,1.18-20.49,6.34-20.9,12.54c0.47,0.14,1.56,0.36,4.05,0.52c5.91,0.38,15.8,1.01,17.47,14.28
		c0.95,7.58-1.09,19.05-7.79,27.55c-5.37,6.82-12.71,10.67-21.8,11.43c-11.42,0.96-21.91-2.88-29.52-10.83
		c-6.53-6.82-9.97-15.83-9.18-24.12c1.57-16.56,14.78-29.46,14.91-29.59l0.01-0.01c0.3-0.28,30.23-27.96,71.47-27.96
		c0.23,0,0.45,0,0.68,0c28.86,0.21,41.44,6.24,54.76,12.62c5.85,2.8,11.9,5.7,19.46,8.05c24.5,7.61,52.27,16.24,89.09,14.49
		c39.75-1.88,53.61-11.9,58.23-19.98l0.52-0.91l0.62,0.84c0.21,0.29,5.23,7.22,3.44,16.43c-1.47,7.56-7.07,14.3-16.64,20.04
		c-28.08,16.83-106.82-4.07-121.58-9.82c-3.11-1.21-6.8-2.88-11.06-4.81c-18.11-8.2-42.92-19.44-54.98-9.81
		c-13.16,10.51-16.53,37.78-17.15,44.07c4.29-2.28,19.31-9.19,27.76,0.52c0.15-0.04,0.38-0.14,0.61-0.37
		c0.52-0.52,1.35-1.99,1.14-6.05l-0.04-0.75h16.92l-0.27,0.92c-0.13,0.43-12.83,43.4-10.16,57.14c1.06,5.47,4.9,9.21,9.55,9.32
		c3.49,0.09,15.29-2.07,22.76-33.07l3.54-13.81h16.44l-0.25,0.91c-0.09,0.31-8.62,31.04-2.31,42.28c1.13,2,2.61,3.22,4.55,3.71
		c2.97,0.75,5.9,0.22,8.71-1.58c8.03-5.16,15.58-21.43,20.19-43.55l0.12-0.56h3.53l5.48-24.12h17.92l-0.28,0.92
		c-0.03,0.1-3.14,10.34-4.97,21.28c-2.38,14.22-1.57,23.13,2.34,25.75c3.4,2.28,6.04,2.91,8.57,2.02
		c6.88-2.42,14.3-16.86,24.83-48.28l0.16-0.48h15.75l-1.25,10.23c0.22,0.03,1.61,0.32,6.73-3.27c4.36-3.06,14.9-4.16,24.33-0.59
		c6.37,2.41,14.63,7.82,17.81,19.89c5.73,21.72-7.97,43.1-20.38,52.54h22.14l-5.89,13.48H76.07C74.4,157.56,62,165.65,44.96,165.65z
		 M26.23,92.18c-1.38,0-2.79,0.12-4.22,0.38c-8.07,1.45-14.47,6.67-17.13,13.95c-7.75,21.23-0.47,40.89,10.31,48.61
		c31.66,20.38,59.97,0.21,60.25,0l0.18-0.13h281.91l4.65-10.64h-24.52l1.94-1.3c12.49-8.41,27.46-30.19,21.63-52.28
		c-3.03-11.49-10.9-16.63-16.96-18.93c-9.01-3.41-19-2.43-23.07,0.43c-4.05,2.85-6.69,3.94-8.07,3.33c-0.68-0.3-0.81-0.87-0.83-0.99
		l-0.02-0.1l1.09-8.95h-13.2c-10.74,31.97-18.15,46.09-25.53,48.69c-2.97,1.04-5.98,0.37-9.77-2.17
		c-9.74-6.54-0.06-41.42,1.79-47.72h-14.95l-5.48,24.12h-3.51c-2.36,11.11-8.87,36.3-20.69,43.89c-3.14,2.02-6.43,2.6-9.78,1.76
		c-2.29-0.58-4.11-2.05-5.41-4.38c-6.06-10.78,0.51-37.15,1.93-42.48h-13.55l-3.27,12.74c-7.72,32.01-20.42,34.24-24.13,34.13
		c-5.31-0.12-9.67-4.33-10.87-10.46c-2.55-13.11,8.03-50.4,9.92-56.91h-13.61c0.07,3.18-0.48,5.35-1.65,6.46
		c-0.89,0.84-1.8,0.74-1.9,0.72l-0.26-0.04l-0.17-0.21c-8.91-10.72-27.21,0.04-27.39,0.15l-1.13,0.67l0.09-1.33
		c0.01-0.09,0.6-8.6,3.06-18.49c3.32-13.35,8.28-22.74,14.73-27.9c12.71-10.15,37.95,1.28,56.38,9.63c4.25,1.92,7.92,3.59,11,4.79
		c19.33,7.53,94.64,25.35,120.39,9.92c9.22-5.52,14.59-11.95,15.98-19.09c1.32-6.76-1.39-12.32-2.62-14.41
		c-7.4,11.44-27.68,18.25-58.78,19.72c-37.07,1.76-66.16-7.28-89.55-14.55c-7.66-2.38-13.75-5.3-19.65-8.12
		C158.62,8.4,146.18,2.44,117.62,2.23C76.67,1.97,46.89,29.36,46.41,29.81c-0.26,0.25-12.97,12.76-14.48,28.69
		c-0.75,7.87,2.54,16.46,8.79,22.98c7.32,7.64,17.42,11.33,28.43,10.41c8.7-0.73,15.71-4.4,20.84-10.91
		c6.44-8.18,8.41-19.19,7.49-26.48c-1.52-12.11-10.35-12.68-16.18-13.05c-4.87-0.31-5.37-0.87-5.5-1.52
		c-0.06-0.28,0.03-0.54,0.18-0.73c0.63-6.92,9.46-12.38,22.12-13.63c3.3-0.33,6.05,0.64,8.18,2.87c5.13,5.38,6.58,18.07,4.31,37.72
		c-2.73,23.63-29.14,60.3-30.26,61.84c-0.61,0.98-15.27,24.11-34.64,24.12c-0.79,0-1.58-0.04-2.38-0.12
		c-20.73-2.05-20.97-19.82-20.97-20v-0.64l0.62-0.07c7.73-0.81,15.51-7.46,18.91-16.17c2.56-6.56,2.07-12.7-1.36-16.83
		C37.25,94.37,32.01,92.18,26.23,92.18z"/>
</g>
<path class="st1" d="M133.38,84.96c0,0-16.04,2.81-19.96,20.9c-3.91,18.09-0.78,23.32,1.96,25.73c2.74,2.41,16.83,5.63,24.26-17.69
	S137.29,86.97,133.38,84.96z"/>
<polygon class="st1" points="87.59,143.25 98.16,129.58 102.85,143.25 "/>
<polygon class="st1" points="134.55,143.25 140.42,136.42 144.72,143.25 "/>
<polygon class="st1" points="184.25,143.25 189.73,139.83 192.46,143.25 "/>
<path class="st1" d="M246.47,122.35c0,0-5.87,15.68-14.48,20.9h25.04c0,0,9.78-5.63,10.17-10.45c0.39-4.82-5.87-4.82-13.3-7.64
	C246.47,122.35,246.47,122.35,246.47,122.35z"/>
<path class="st1" d="M287.94,129.58v13.67h9.78c0,0-4.3-7.64-4.89-10.45c-0.59-2.81-0.59-2.81-0.59-2.81
	S287.94,125.56,287.94,129.58z"/>
<polygon class="st2" points="199.51,68.01 195.99,83.63 211.64,83.63 216.33,68.01 "/>
<path class="st1" d="M332.7,84.84c0,0,18.86,1.59,15.77,23.51s-21.65,25.38-29.69,24.45c-8.04-0.94-19.48-10.47-11.44-32.71
	C311.67,88.97,326.01,82.75,332.7,84.84z"/>
</svg>
